<svg width="16" height="16" viewBox="0 0 16 16" fill="none" xmlns="http://www.w3.org/2000/svg">
<mask id="mask0_285_5835" style="mask-type:alpha" maskUnits="userSpaceOnUse" x="0" y="0" width="16" height="16">
<rect width="16" height="16" fill="#D9D9D9"/>
</mask>
<g mask="url(#mask0_285_5835)">
<path d="M13.8182 7.81818C10.7102 7.81818 8.18182 5.28982 8.18182 2.18182C8.18182 2.08145 8.10036 2 8 2C7.89964 2 7.81818 2.08145 7.81818 2.18182C7.81818 5.28982 5.28982 7.81818 2.18182 7.81818C2.08145 7.81818 2 7.89964 2 8C2 8.10036 2.08145 8.18182 2.18182 8.18182C5.28982 8.18182 7.81818 10.7102 7.81818 13.8182C7.81818 13.9185 7.89964 14 8 14C8.10036 14 8.18182 13.9185 8.18182 13.8182C8.18182 10.7102 10.7102 8.18182 13.8182 8.18182C13.9185 8.18182 14 8.10036 14 8C14 7.89964 13.9185 7.81818 13.8182 7.81818Z" fill="white"/>
</g>
</svg>
