<svg width="13" height="12" viewBox="0 0 13 12" fill="none" xmlns="http://www.w3.org/2000/svg">
<path d="M12.1517 5.81818C9.04368 5.81818 6.51531 3.28982 6.51531 0.181818C6.51531 0.0814546 6.43386 0 6.3335 0C6.23313 0 6.15168 0.0814546 6.15168 0.181818C6.15168 3.28982 3.62331 5.81818 0.515314 5.81818C0.414951 5.81818 0.333496 5.89964 0.333496 6C0.333496 6.10036 0.414951 6.18182 0.515314 6.18182C3.62331 6.18182 6.15168 8.71018 6.15168 11.8182C6.15168 11.9185 6.23313 12 6.3335 12C6.43386 12 6.51531 11.9185 6.51531 11.8182C6.51531 8.71018 9.04368 6.18182 12.1517 6.18182C12.252 6.18182 12.3335 6.10036 12.3335 6C12.3335 5.89964 12.252 5.81818 12.1517 5.81818Z" fill="#DB3737"/>
</svg>
