<svg width="32" height="32" viewBox="0 0 32 32" fill="none" xmlns="http://www.w3.org/2000/svg">
<rect width="32" height="32" rx="16" fill="#DB3737"/>
<path d="M16.0001 21.333C15.4667 20.9108 14.889 20.583 14.2667 20.3497C13.6445 20.1163 13.0001 19.9997 12.3334 19.9997C11.8667 19.9997 11.4084 20.0608 10.9584 20.183C10.5084 20.3052 10.0779 20.4775 9.66675 20.6997C9.43341 20.8219 9.20841 20.8163 8.99175 20.683C8.77508 20.5497 8.66675 20.3552 8.66675 20.0997V12.0663C8.66675 11.9441 8.6973 11.8275 8.75841 11.7163C8.81953 11.6052 8.91119 11.5219 9.03341 11.4663C9.54453 11.1997 10.0779 10.9997 10.6334 10.8663C11.189 10.733 11.7556 10.6663 12.3334 10.6663C12.9779 10.6663 13.6084 10.7497 14.2251 10.9163C14.8417 11.083 15.4334 11.333 16.0001 11.6663V19.733C16.5667 19.3775 17.1612 19.1108 17.7834 18.933C18.4056 18.7552 19.0334 18.6663 19.6667 18.6663C20.0667 18.6663 20.4584 18.6997 20.8417 18.7663C21.2251 18.833 21.6112 18.933 22.0001 19.0663V11.0663C22.1667 11.1219 22.3306 11.1802 22.4917 11.2413C22.6529 11.3025 22.8112 11.3775 22.9667 11.4663C23.089 11.5219 23.1806 11.6052 23.2417 11.7163C23.3029 11.8275 23.3334 11.9441 23.3334 12.0663V20.0997C23.3334 20.3552 23.2251 20.5497 23.0084 20.683C22.7917 20.8163 22.5667 20.8219 22.3334 20.6997C21.9223 20.4775 21.4917 20.3052 21.0417 20.183C20.5917 20.0608 20.1334 19.9997 19.6667 19.9997C19.0001 19.9997 18.3556 20.1163 17.7334 20.3497C17.1112 20.583 16.5334 20.9108 16.0001 21.333ZM17.3334 17.9997V11.6663L20.6667 8.33301V14.9997L17.3334 17.9997ZM14.6667 19.083V12.483C14.3001 12.3275 13.9195 12.208 13.5251 12.1247C13.1306 12.0413 12.7334 11.9997 12.3334 11.9997C11.9223 11.9997 11.5223 12.0386 11.1334 12.1163C10.7445 12.1941 10.3667 12.3108 10.0001 12.4663V19.083C10.389 18.9386 10.7751 18.833 11.1584 18.7663C11.5417 18.6997 11.9334 18.6663 12.3334 18.6663C12.7334 18.6663 13.1251 18.6997 13.5084 18.7663C13.8917 18.833 14.2779 18.9386 14.6667 19.083Z" fill="white"/>
</svg>
