<svg width="48" height="48" viewBox="0 0 48 48" fill="none" xmlns="http://www.w3.org/2000/svg">
<rect width="48" height="48" rx="24" fill="white"/>
<mask id="mask0_93_2" style="mask-type:alpha" maskUnits="userSpaceOnUse" x="12" y="12" width="24" height="24">
<rect x="12" y="12" width="24" height="24" fill="#D9D9D9"/>
</mask>
<g mask="url(#mask0_93_2)">
<path d="M18.5 28C19.2833 28 20.0458 28.0875 20.7875 28.2625C21.5292 28.4375 22.2667 28.7 23 29.05V19.2C22.3167 18.8 21.5917 18.5 20.825 18.3C20.0583 18.1 19.2833 18 18.5 18C17.9 18 17.3042 18.0583 16.7125 18.175C16.1208 18.2917 15.55 18.4667 15 18.7V28.6C15.5833 28.4 16.1625 28.25 16.7375 28.15C17.3125 28.05 17.9 28 18.5 28ZM25 29.05C25.7333 28.7 26.4708 28.4375 27.2125 28.2625C27.9542 28.0875 28.7167 28 29.5 28C30.1 28 30.6875 28.05 31.2625 28.15C31.8375 28.25 32.4167 28.4 33 28.6V18.7C32.45 18.4667 31.8792 18.2917 31.2875 18.175C30.6958 18.0583 30.1 18 29.5 18C28.7167 18 27.9417 18.1 27.175 18.3C26.4083 18.5 25.6833 18.8 25 19.2V29.05ZM24 32C23.2 31.3667 22.3333 30.875 21.4 30.525C20.4667 30.175 19.5 30 18.5 30C17.8 30 17.1125 30.0917 16.4375 30.275C15.7625 30.4583 15.1167 30.7167 14.5 31.05C14.15 31.2333 13.8125 31.225 13.4875 31.025C13.1625 30.825 13 30.5333 13 30.15V18.1C13 17.9167 13.0458 17.7417 13.1375 17.575C13.2292 17.4083 13.3667 17.2833 13.55 17.2C14.3167 16.8 15.1167 16.5 15.95 16.3C16.7833 16.1 17.6333 16 18.5 16C19.4667 16 20.4125 16.125 21.3375 16.375C22.2625 16.625 23.15 17 24 17.5C24.85 17 25.7375 16.625 26.6625 16.375C27.5875 16.125 28.5333 16 29.5 16C30.3667 16 31.2167 16.1 32.05 16.3C32.8833 16.5 33.6833 16.8 34.45 17.2C34.6333 17.2833 34.7708 17.4083 34.8625 17.575C34.9542 17.7417 35 17.9167 35 18.1V30.15C35 30.5333 34.8375 30.825 34.5125 31.025C34.1875 31.225 33.85 31.2333 33.5 31.05C32.8833 30.7167 32.2375 30.4583 31.5625 30.275C30.8875 30.0917 30.2 30 29.5 30C28.5 30 27.5333 30.175 26.6 30.525C25.6667 30.875 24.8 31.3667 24 32Z" fill="#DB3737"/>
</g>
</svg>
