<svg width="14" height="14" viewBox="0 0 14 14" fill="none" xmlns="http://www.w3.org/2000/svg">
<g clip-path="url(#clip0_285_6365)">
<path d="M6.97642 11.3232C6.32226 11.3232 5.79243 10.7934 5.79243 10.1392C5.79243 9.48507 6.32226 8.95525 6.97642 8.95525C7.63059 8.95525 8.16042 9.48507 8.16042 10.1392C8.16042 10.7934 7.63059 11.3232 6.97642 11.3232ZM5.62043 8.30868C5.62043 7.97849 5.3531 7.71116 5.0229 7.71116C4.69271 7.71116 4.42538 7.97849 4.42538 8.30868C4.42538 8.63887 4.69271 8.9062 5.0229 8.9062C5.3531 8.9062 5.62043 8.63887 5.62043 8.30868ZM9.40727 8.30868C9.40727 7.97849 9.13994 7.71116 8.80975 7.71116C8.47956 7.71116 8.21223 7.97849 8.21223 8.30868C8.21223 8.63887 8.47956 8.9062 8.80975 8.9062C9.13994 8.9062 9.40727 8.63887 9.40727 8.30868ZM9.63868 11.9733C9.63937 12.559 8.56314 13.9945 7.14843 14H7.13876C5.72957 14 4.6561 12.7939 4.6561 12.1895C4.6561 12.023 4.7238 11.9194 4.78113 11.86C4.87024 11.7681 5.08784 11.6686 5.40145 11.775C5.74269 11.8924 6.43002 12.0893 7.203 12.0893C7.82746 12.0893 8.35176 11.9594 8.76001 11.7018C8.941 11.5885 9.08744 11.536 9.22145 11.536C9.46668 11.536 9.63868 11.7156 9.63868 11.9733ZM8.91958 12.2883C8.44433 12.5466 7.86753 12.6772 7.203 12.6772C6.41551 12.6772 5.71161 12.4941 5.31027 12.3642C5.36346 12.463 5.45326 12.5922 5.59487 12.7366C5.79519 12.939 6.34643 13.4128 7.13876 13.4128V13.7057L7.14636 13.4128C7.8095 13.4101 8.32275 12.9873 8.56867 12.7366C8.72686 12.5763 8.84222 12.4195 8.91958 12.2883ZM11.041 5.03715C11.041 5.03715 10.9961 4.89209 10.9125 4.65515C10.5457 3.61001 10.411 0 6.83689 0C3.2628 0 3.11359 3.03252 2.93606 4.65515C2.92156 4.7864 2.91189 4.91489 2.91189 5.03715C2.91189 5.03715 6.38926 7.4155 11.041 5.03715ZM11.8975 5.22574C11.8975 5.22574 10.6002 6.49953 6.97573 6.59762C3.35191 6.69571 2.10368 5.22574 2.10368 5.22574C1.46816 5.22574 0.952148 5.74106 0.952148 6.37657C0.952148 7.01209 1.46747 7.52741 2.10368 7.52741C2.10368 7.52741 6.63932 6.08921 11.8968 7.52741C11.8968 7.52741 13.0477 7.01209 13.0477 6.37657C13.0484 5.74106 12.5337 5.22574 11.8975 5.22574Z" fill="#DB3737"/>
</g>
<defs>
<clipPath id="clip0_285_6365">
<rect width="14" height="14" fill="white"/>
</clipPath>
</defs>
</svg>
