<svg width="14" height="14" viewBox="0 0 14 14" fill="none" xmlns="http://www.w3.org/2000/svg">
<g clip-path="url(#clip0_285_6375)">
<path d="M11.5568 5.49438C10.6807 5.49438 9.9124 5.95512 9.48124 6.64724C9.38744 6.79783 9.16849 6.79783 9.07467 6.64724C8.6435 5.95512 7.87519 5.49438 6.99906 5.49438C6.9969 5.49438 6.99461 5.49438 6.99245 5.49438C5.57949 5.4943 4.56288 6.70028 4.56288 8.11925H4.5625C4.5625 11.2842 8.46039 13.5675 9.16959 13.9567C9.23969 13.9952 9.32403 13.9961 9.39501 13.9592C10.1194 13.5832 13.9999 11.35 13.9999 7.93491C13.9999 6.58705 12.9061 5.49438 11.5568 5.49438Z" fill="#DB3737"/>
<path d="M6.99251 4.62338H6.99257H6.99964C7.58719 4.62347 8.15476 4.77654 8.65737 5.06764C11.2427 0.759986 6.7534 -1.51737 4.91871 1.1738C4.82494 1.32441 4.60599 1.32441 4.5122 1.17382C4.08103 0.48168 3.31269 0.0209445 2.43659 0.0209445C1.02024 0.0171729 0.000382626 1.22468 0.000382626 2.64581H0C0 5.049 2.28739 6.97273 3.69671 7.92834C3.74981 6.16397 5.20393 4.5896 6.99251 4.62338Z" fill="#DB3737"/>
</g>
<defs>
<clipPath id="clip0_285_6375">
<rect width="14" height="14" fill="white"/>
</clipPath>
</defs>
</svg>
