<svg width="48" height="48" viewBox="0 0 48 48" fill="none" xmlns="http://www.w3.org/2000/svg">
<rect width="48" height="48" rx="24" fill="#DB3737"/>
<mask id="mask0_93_2" style="mask-type:alpha" maskUnits="userSpaceOnUse" x="12" y="12" width="24" height="24">
<rect x="12" y="12" width="24" height="24" fill="#D9D9D9"/>
</mask>
<g mask="url(#mask0_93_2)">
<path d="M18 34V29.7C17.05 28.8333 16.3125 27.8208 15.7875 26.6625C15.2625 25.5042 15 24.2833 15 23C15 20.5 15.875 18.375 17.625 16.625C19.375 14.875 21.5 14 24 14C26.0833 14 27.9292 14.6125 29.5375 15.8375C31.1458 17.0625 32.1917 18.6583 32.675 20.625L33.975 25.75C34.0583 26.0667 34 26.3542 33.8 26.6125C33.6 26.8708 33.3333 27 33 27H31V30C31 30.55 30.8042 31.0208 30.4125 31.4125C30.0208 31.8042 29.55 32 29 32H27V34H25V30H29V25H31.7L30.75 21.125C30.3667 19.6083 29.55 18.375 28.3 17.425C27.05 16.475 25.6167 16 24 16C22.0667 16 20.4167 16.675 19.05 18.025C17.6833 19.375 17 21.0167 17 22.95C17 23.95 17.2042 24.9 17.6125 25.8C18.0208 26.7 18.6 27.5 19.35 28.2L20 28.8V34H18ZM24 28C24.2833 28 24.5208 27.9042 24.7125 27.7125C24.9042 27.5208 25 27.2833 25 27C25 26.7167 24.9042 26.4792 24.7125 26.2875C24.5208 26.0958 24.2833 26 24 26C23.7167 26 23.4792 26.0958 23.2875 26.2875C23.0958 26.4792 23 26.7167 23 27C23 27.2833 23.0958 27.5208 23.2875 27.7125C23.4792 27.9042 23.7167 28 24 28ZM23.25 24.8H24.775C24.775 24.3833 24.8292 24.0458 24.9375 23.7875C25.0458 23.5292 25.2667 23.2167 25.6 22.85C25.9 22.5167 26.1917 22.1792 26.475 21.8375C26.7583 21.4958 26.9 21.05 26.9 20.5C26.9 19.8 26.6292 19.2083 26.0875 18.725C25.5458 18.2417 24.875 18 24.075 18C23.4083 18 22.8042 18.1917 22.2625 18.575C21.7208 18.9583 21.3417 19.4583 21.125 20.075L22.5 20.65C22.6167 20.2833 22.8208 19.9875 23.1125 19.7625C23.4042 19.5375 23.725 19.425 24.075 19.425C24.4417 19.425 24.7458 19.525 24.9875 19.725C25.2292 19.925 25.35 20.1833 25.35 20.5C25.35 20.85 25.2458 21.1625 25.0375 21.4375C24.8292 21.7125 24.5833 21.9917 24.3 22.275C23.9667 22.625 23.7083 22.975 23.525 23.325C23.3417 23.675 23.25 24.1667 23.25 24.8Z" fill="white"/>
</g>
</svg>
