<svg width="48" height="48" viewBox="0 0 48 48" fill="none" xmlns="http://www.w3.org/2000/svg">
<rect width="48" height="48" rx="24" fill="#DB3737"/>
<mask id="mask0_93_2" style="mask-type:alpha" maskUnits="userSpaceOnUse" x="12" y="12" width="24" height="24">
<rect x="12" y="12" width="24" height="24" fill="#D9D9D9"/>
</mask>
<g mask="url(#mask0_93_2)">
<path d="M24.25 22.825L25.175 23.75L30.6 18.325L29.675 17.4L24.25 22.825ZM17 31H17.925L23.75 25.175L22.825 24.25L17 30.075V31ZM25.875 25.875L22.125 22.125L26.3 17.95L25.575 17.225L20.1 22.7L18.7 21.3L24.15 15.825C24.55 15.425 25.0208 15.225 25.5625 15.225C26.1042 15.225 26.575 15.425 26.975 15.825L27.7 16.55L28.95 15.3C29.15 15.1 29.3875 15 29.6625 15C29.9375 15 30.175 15.1 30.375 15.3L32.7 17.625C32.9 17.825 33 18.0625 33 18.3375C33 18.6125 32.9 18.85 32.7 19.05L25.875 25.875ZM18.75 33H15V29.25L22.125 22.125L25.875 25.875L18.75 33Z" fill="white"/>
</g>
</svg>
