<svg width="48" height="48" viewBox="0 0 48 48" fill="none" xmlns="http://www.w3.org/2000/svg">
<rect width="48" height="48" rx="24" fill="#DB3737"/>
<mask id="mask0_93_2" style="mask-type:alpha" maskUnits="userSpaceOnUse" x="12" y="12" width="24" height="24">
<rect x="12" y="12" width="24" height="24" fill="#D9D9D9"/>
</mask>
<g mask="url(#mask0_93_2)">
<path d="M24.475 28.825L32.85 20.45L31.55 19.15L23.175 27.525L24.475 28.825ZM17.95 31C16.2833 30.9167 15.0417 30.5667 14.225 29.95C13.4083 29.3333 13 28.4417 13 27.275C13 26.1917 13.4458 25.3125 14.3375 24.6375C15.2292 23.9625 16.4667 23.5583 18.05 23.425C18.7 23.375 19.1875 23.2708 19.5125 23.1125C19.8375 22.9542 20 22.7333 20 22.45C20 22.0167 19.7542 21.6917 19.2625 21.475C18.7708 21.2583 17.9583 21.1 16.825 21L17 19C18.7167 19.1333 19.9792 19.4792 20.7875 20.0375C21.5958 20.5958 22 21.4 22 22.45C22 23.3333 21.6792 24.025 21.0375 24.525C20.3958 25.025 19.45 25.325 18.2 25.425C17.1333 25.5083 16.3333 25.7042 15.8 26.0125C15.2667 26.3208 15 26.7417 15 27.275C15 27.8583 15.2333 28.2792 15.7 28.5375C16.1667 28.7958 16.95 28.95 18.05 29L17.95 31ZM24.95 31.175L20.825 27.05L30.375 17.5C30.7083 17.1667 31.1042 17 31.5625 17C32.0208 17 32.4167 17.1667 32.75 17.5L34.5 19.25C34.8333 19.5833 35 19.9792 35 20.4375C35 20.8958 34.8333 21.2917 34.5 21.625L24.95 31.175ZM20.975 32C20.6917 32.0667 20.4417 31.9917 20.225 31.775C20.0083 31.5583 19.9333 31.3083 20 31.025L20.825 27.05L24.95 31.175L20.975 32Z" fill="white"/>
</g>
</svg>
