<svg width="48" height="48" viewBox="0 0 48 48" fill="none" xmlns="http://www.w3.org/2000/svg">
<rect width="48" height="48" rx="24" fill="#DB3737"/>
<mask id="mask0_93_2" style="mask-type:alpha" maskUnits="userSpaceOnUse" x="12" y="12" width="24" height="24">
<rect x="12" y="12" width="24" height="24" fill="#D9D9D9"/>
</mask>
<g mask="url(#mask0_93_2)">
<path d="M19.5 34C18.5333 34 17.7083 33.6583 17.025 32.975C16.3417 32.2917 16 31.4667 16 30.5V17.5C16 16.5333 16.3417 15.7083 17.025 15.025C17.7083 14.3417 18.5333 14 19.5 14H32V29C31.5833 29 31.2292 29.1458 30.9375 29.4375C30.6458 29.7292 30.5 30.0833 30.5 30.5C30.5 30.9167 30.6458 31.2708 30.9375 31.5625C31.2292 31.8542 31.5833 32 32 32V34H19.5ZM18 27.325C18.2333 27.2083 18.475 27.125 18.725 27.075C18.975 27.025 19.2333 27 19.5 27H20V16H19.5C19.0833 16 18.7292 16.1458 18.4375 16.4375C18.1458 16.7292 18 17.0833 18 17.5V27.325ZM22 27H30V16H22V27ZM19.5 32H28.825C28.725 31.7667 28.6458 31.5292 28.5875 31.2875C28.5292 31.0458 28.5 30.7833 28.5 30.5C28.5 30.2333 28.525 29.975 28.575 29.725C28.625 29.475 28.7083 29.2333 28.825 29H19.5C19.0667 29 18.7083 29.1458 18.425 29.4375C18.1417 29.7292 18 30.0833 18 30.5C18 30.9333 18.1417 31.2917 18.425 31.575C18.7083 31.8583 19.0667 32 19.5 32Z" fill="white"/>
</g>
</svg>
