<svg width="14" height="14" viewBox="0 0 14 14" fill="none" xmlns="http://www.w3.org/2000/svg">
<g clip-path="url(#clip0_285_6352)">
<path d="M10.5188 5.40311C10.581 5.35315 10.6313 5.28989 10.6659 5.21797C10.7005 5.14605 10.7186 5.06729 10.7188 4.98748C10.7188 4.89801 10.6963 4.80996 10.6535 4.73141C10.6106 4.65286 10.5488 4.58632 10.4735 4.53788C10.3983 4.48945 10.3121 4.46067 10.2229 4.45419C10.1336 4.4477 10.0442 4.46372 9.96275 4.50077L8.3125 5.24999H5.6875L4.03725 4.49989C3.95574 4.46281 3.86622 4.4468 3.77691 4.45333C3.6876 4.45985 3.60136 4.48871 3.5261 4.53725C3.45085 4.58578 3.38899 4.65244 3.34621 4.73111C3.30343 4.80978 3.28109 4.89794 3.28125 4.98748C3.28125 5.06752 3.29921 5.14653 3.33381 5.21869C3.36842 5.29085 3.41878 5.35432 3.48119 5.40442L5.46875 6.99999V8.33042L5.0015 10.3429C4.96281 10.509 4.98958 10.6837 5.07624 10.8305C5.1629 10.9774 5.3028 11.0853 5.46689 11.1318C5.63099 11.1783 5.80669 11.1598 5.9575 11.0801C6.10831 11.0005 6.22266 10.8658 6.27681 10.7041L7 8.54786L7.72319 10.7039C7.77734 10.8656 7.89169 11.0003 8.0425 11.0799C8.19332 11.1595 8.36901 11.178 8.53311 11.1316C8.69721 11.0851 8.83711 10.9772 8.92377 10.8303C9.01043 10.6834 9.03719 10.5088 8.9985 10.3427L8.53125 8.33042V6.99999L10.5188 5.40311Z" fill="#DB3737"/>
<path d="M7 5.03125C7.60406 5.03125 8.09375 4.54156 8.09375 3.9375C8.09375 3.33344 7.60406 2.84375 7 2.84375C6.39594 2.84375 5.90625 3.33344 5.90625 3.9375C5.90625 4.54156 6.39594 5.03125 7 5.03125Z" fill="#DB3737"/>
<path d="M7.21875 1.3125V0.875C7.21875 0.816984 7.1957 0.761344 7.15468 0.72032C7.11366 0.679297 7.05802 0.65625 7 0.65625C6.94198 0.65625 6.88634 0.679297 6.84532 0.72032C6.8043 0.761344 6.78125 0.816984 6.78125 0.875V1.3125C6.78125 1.37052 6.8043 1.42616 6.84532 1.46718C6.88634 1.5082 6.94198 1.53125 7 1.53125C7.05802 1.53125 7.11366 1.5082 7.15468 1.46718C7.1957 1.42616 7.21875 1.37052 7.21875 1.3125Z" fill="#DB3737"/>
<path d="M7.21875 13.125V12.6875C7.21875 12.6295 7.1957 12.5738 7.15468 12.5328C7.11366 12.4918 7.05802 12.4688 7 12.4688C6.94198 12.4688 6.88634 12.4918 6.84532 12.5328C6.8043 12.5738 6.78125 12.6295 6.78125 12.6875V13.125C6.78125 13.183 6.8043 13.2387 6.84532 13.2797C6.88634 13.3207 6.94198 13.3438 7 13.3438C7.05802 13.3438 7.11366 13.3207 7.15468 13.2797C7.1957 13.2387 7.21875 13.183 7.21875 13.125Z" fill="#DB3737"/>
<path d="M13.125 7.21875C13.183 7.21875 13.2387 7.1957 13.2797 7.15468C13.3207 7.11366 13.3438 7.05802 13.3438 7C13.3438 6.94198 13.3207 6.88634 13.2797 6.84532C13.2387 6.8043 13.183 6.78125 13.125 6.78125H12.6875C12.6295 6.78125 12.5738 6.8043 12.5328 6.84532C12.4918 6.88634 12.4688 6.94198 12.4688 7C12.4688 7.05802 12.4918 7.11366 12.5328 7.15468C12.5738 7.1957 12.6295 7.21875 12.6875 7.21875H13.125Z" fill="#DB3737"/>
<path d="M0.875 6.78125C0.816984 6.78125 0.761344 6.8043 0.72032 6.84532C0.679297 6.88634 0.65625 6.94198 0.65625 7C0.65625 7.05802 0.679297 7.11366 0.72032 7.15468C0.761344 7.1957 0.816984 7.21875 0.875 7.21875H1.3125C1.37052 7.21875 1.42616 7.1957 1.46718 7.15468C1.5082 7.11366 1.53125 7.05802 1.53125 7C1.53125 6.94198 1.5082 6.88634 1.46718 6.84532C1.42616 6.8043 1.37052 6.78125 1.3125 6.78125H0.875Z" fill="#DB3737"/>
<path d="M12.0511 10.5168C12.0504 10.5121 12.048 10.5078 12.0444 10.5047C12.0407 10.5016 12.0361 10.4999 12.0314 10.4999C12.0266 10.4999 12.022 10.5016 12.0184 10.5047C12.0148 10.5078 12.0124 10.5121 12.0117 10.5168C11.8273 11.6423 11.6424 11.8272 10.517 12.0116C10.5122 12.0123 10.5079 12.0146 10.5048 12.0183C10.5017 12.0219 10.5 12.0265 10.5 12.0312C10.5 12.036 10.5017 12.0406 10.5048 12.0442C10.5079 12.0479 10.5122 12.0502 10.517 12.0509C11.6424 12.2353 11.8273 12.4202 12.0117 13.5457C12.0124 13.5504 12.0148 13.5547 12.0184 13.5578C12.022 13.5609 12.0266 13.5626 12.0314 13.5626C12.0361 13.5626 12.0407 13.5609 12.0444 13.5578C12.048 13.5547 12.0504 13.5504 12.0511 13.5457C12.2355 12.4202 12.4203 12.2353 13.5458 12.0509C13.5505 12.0502 13.5548 12.0479 13.5579 12.0442C13.561 12.0406 13.5627 12.036 13.5627 12.0312C13.5627 12.0265 13.561 12.0219 13.5579 12.0183C13.5548 12.0146 13.5505 12.0123 13.5458 12.0116C12.4203 11.8272 12.2355 11.6423 12.0511 10.5168Z" fill="#DB3737"/>
<path d="M12.0511 0.454341C12.0504 0.449624 12.048 0.445317 12.0444 0.442204C12.0407 0.43909 12.0361 0.437378 12.0314 0.437378C12.0266 0.437378 12.022 0.43909 12.0184 0.442204C12.0148 0.445317 12.0124 0.449624 12.0117 0.454341C11.8273 1.57981 11.6424 1.76465 10.517 1.94906C10.5122 1.94977 10.5079 1.95214 10.5048 1.95575C10.5017 1.95937 10.5 1.96398 10.5 1.96875C10.5 1.97352 10.5017 1.97813 10.5048 1.98174C10.5079 1.98535 10.5122 1.98773 10.517 1.98844C11.6424 2.17284 11.8273 2.35769 12.0117 3.48315C12.0124 3.48787 12.0148 3.49218 12.0184 3.49529C12.022 3.4984 12.0266 3.50012 12.0314 3.50012C12.0361 3.50012 12.0407 3.4984 12.0444 3.49529C12.048 3.49218 12.0504 3.48787 12.0511 3.48315C12.2355 2.35769 12.4203 2.17284 13.5458 1.98844C13.5505 1.98773 13.5548 1.98535 13.5579 1.98174C13.561 1.97813 13.5627 1.97352 13.5627 1.96875C13.5627 1.96398 13.561 1.95937 13.5579 1.95575C13.5548 1.95214 13.5505 1.94977 13.5458 1.94906C12.4203 1.76465 12.2355 1.57981 12.0511 0.454341Z" fill="#DB3737"/>
<path d="M1.94918 13.5457C1.94989 13.5504 1.95226 13.5547 1.95588 13.5578C1.95949 13.5609 1.9641 13.5626 1.96887 13.5626C1.97364 13.5626 1.97825 13.5609 1.98186 13.5578C1.98548 13.5547 1.98785 13.5504 1.98856 13.5457C2.17296 12.4202 2.35781 12.2353 3.48328 12.0509C3.48799 12.0502 3.4923 12.0479 3.49541 12.0442C3.49853 12.0406 3.50024 12.036 3.50024 12.0312C3.50024 12.0265 3.49853 12.0219 3.49541 12.0183C3.4923 12.0146 3.48799 12.0123 3.48328 12.0116C2.35781 11.8272 2.17296 11.6423 1.98856 10.5168C1.98785 10.5121 1.98548 10.5078 1.98186 10.5047C1.97825 10.5016 1.97364 10.4999 1.96887 10.4999C1.9641 10.4999 1.95949 10.5016 1.95588 10.5047C1.95226 10.5078 1.94989 10.5121 1.94918 10.5168C1.76478 11.6423 1.57993 11.8272 0.454463 12.0116C0.449746 12.0123 0.445439 12.0146 0.442326 12.0183C0.439212 12.0219 0.4375 12.0265 0.4375 12.0312C0.4375 12.036 0.439212 12.0406 0.442326 12.0442C0.445439 12.0479 0.449746 12.0502 0.454463 12.0509C1.57993 12.2353 1.76478 12.4202 1.94918 13.5457Z" fill="#DB3737"/>
<path d="M1.94918 3.48315C1.94989 3.48787 1.95226 3.49218 1.95588 3.49529C1.95949 3.4984 1.9641 3.50012 1.96887 3.50012C1.97364 3.50012 1.97825 3.4984 1.98186 3.49529C1.98548 3.49218 1.98785 3.48787 1.98856 3.48315C2.17296 2.35769 2.35781 2.17284 3.48328 1.98844C3.48799 1.98773 3.4923 1.98535 3.49541 1.98174C3.49853 1.97813 3.50024 1.97352 3.50024 1.96875C3.50024 1.96398 3.49853 1.95937 3.49541 1.95575C3.4923 1.95214 3.48799 1.94977 3.48328 1.94906C2.35781 1.76465 2.17296 1.57981 1.98856 0.454341C1.98785 0.449624 1.98548 0.445317 1.98186 0.442204C1.97825 0.43909 1.97364 0.437378 1.96887 0.437378C1.9641 0.437378 1.95949 0.43909 1.95588 0.442204C1.95226 0.445317 1.94989 0.449624 1.94918 0.454341C1.76478 1.57981 1.57993 1.76465 0.454463 1.94906C0.449746 1.94977 0.445439 1.95214 0.442326 1.95575C0.439212 1.95937 0.4375 1.96398 0.4375 1.96875C0.4375 1.97352 0.439212 1.97813 0.442326 1.98174C0.445439 1.98535 0.449746 1.98773 0.454463 1.98844C1.57993 2.17284 1.76478 2.35769 1.94918 3.48315Z" fill="#DB3737"/>
</g>
<defs>
<clipPath id="clip0_285_6352">
<rect width="14" height="14" fill="white"/>
</clipPath>
</defs>
</svg>
