<svg width="48" height="48" viewBox="0 0 48 48" fill="none" xmlns="http://www.w3.org/2000/svg">
<rect width="48" height="48" rx="24" fill="#DB3737"/>
<mask id="mask0_472_7541" style="mask-type:alpha" maskUnits="userSpaceOnUse" x="12" y="12" width="24" height="24">
<rect x="12" y="12" width="24" height="24" fill="#D9D9D9"/>
</mask>
<g mask="url(#mask0_472_7541)">
<path d="M24 32C23.2 31.3667 22.3333 30.875 21.4 30.525C20.4667 30.175 19.5 30 18.5 30C17.8 30 17.1125 30.0917 16.4375 30.275C15.7625 30.4583 15.1167 30.7167 14.5 31.05C14.15 31.2333 13.8125 31.225 13.4875 31.025C13.1625 30.825 13 30.5333 13 30.15V18.1C13 17.9167 13.0458 17.7417 13.1375 17.575C13.2292 17.4083 13.3667 17.2833 13.55 17.2C14.3167 16.8 15.1167 16.5 15.95 16.3C16.7833 16.1 17.6333 16 18.5 16C19.4667 16 20.4125 16.125 21.3375 16.375C22.2625 16.625 23.15 17 24 17.5V29.6C24.85 29.0667 25.7417 28.6667 26.675 28.4C27.6083 28.1333 28.55 28 29.5 28C30.1 28 30.6875 28.05 31.2625 28.15C31.8375 28.25 32.4167 28.4 33 28.6V16.6C33.25 16.6833 33.4958 16.7708 33.7375 16.8625C33.9792 16.9542 34.2167 17.0667 34.45 17.2C34.6333 17.2833 34.7708 17.4083 34.8625 17.575C34.9542 17.7417 35 17.9167 35 18.1V30.15C35 30.5333 34.8375 30.825 34.5125 31.025C34.1875 31.225 33.85 31.2333 33.5 31.05C32.8833 30.7167 32.2375 30.4583 31.5625 30.275C30.8875 30.0917 30.2 30 29.5 30C28.5 30 27.5333 30.175 26.6 30.525C25.6667 30.875 24.8 31.3667 24 32ZM26 27V17.5L31 12.5V22.5L26 27ZM22 28.625V18.725C21.45 18.4917 20.8792 18.3125 20.2875 18.1875C19.6958 18.0625 19.1 18 18.5 18C17.8833 18 17.2833 18.0583 16.7 18.175C16.1167 18.2917 15.55 18.4667 15 18.7V28.625C15.5833 28.4083 16.1625 28.25 16.7375 28.15C17.3125 28.05 17.9 28 18.5 28C19.1 28 19.6875 28.05 20.2625 28.15C20.8375 28.25 21.4167 28.4083 22 28.625Z" fill="white"/>
</g>
</svg>
