<svg width="14" height="14" viewBox="0 0 14 14" fill="none" xmlns="http://www.w3.org/2000/svg">
<path d="M2.14122 1.65216C2.14084 1.65216 2.14042 1.65216 2.14004 1.65216C2.00763 1.65216 1.88309 1.70378 1.78905 1.79758C1.69397 1.89242 1.6416 2.01871 1.6416 2.15315V9.66533C1.6416 9.9408 1.86659 10.1655 2.1432 10.1662C3.3093 10.169 5.26299 10.412 6.61077 11.8224V3.96071C6.61077 3.86733 6.58692 3.7796 6.5419 3.70701C5.43571 1.92556 3.30996 1.65489 2.14122 1.65216Z" fill="#DB3737"/>
<path d="M12.3578 9.66531V2.15308C12.3578 2.01865 12.3054 1.89236 12.2103 1.79752C12.1163 1.70372 11.9917 1.6521 11.8594 1.6521C11.859 1.6521 11.8586 1.6521 11.8582 1.6521C10.6895 1.65488 8.56373 1.92555 7.45749 3.707C7.41248 3.77959 7.38867 3.86731 7.38867 3.96069V11.8224C8.73645 10.4119 10.6901 10.1689 11.8562 10.1661C12.1328 10.1654 12.3578 9.94074 12.3578 9.66531Z" fill="#DB3737"/>
<path d="M13.4988 3.38458H13.1355V9.66532C13.1355 10.3687 12.5625 10.9422 11.858 10.9439C10.8689 10.9463 9.23804 11.1397 8.08301 12.2329C10.0806 11.7438 12.1865 12.0617 13.3866 12.3352C13.5365 12.3694 13.6913 12.3341 13.8114 12.2384C13.931 12.143 13.9997 12.0003 13.9997 11.8471V3.88547C13.9997 3.60929 13.7749 3.38458 13.4988 3.38458Z" fill="#DB3737"/>
<path d="M0.864138 9.66532V3.38458H0.500891C0.224755 3.38458 0 3.60929 0 3.88547V11.847C0 12.0002 0.0686332 12.1428 0.18827 12.2383C0.308237 12.3339 0.462944 12.3693 0.613032 12.3351C1.81317 12.0615 3.91907 11.7436 5.9166 12.2328C4.76162 11.1396 3.13073 10.9463 2.14163 10.9439C1.43724 10.9422 0.864138 10.3687 0.864138 9.66532Z" fill="#DB3737"/>
</svg>
