<svg width="96" height="96" viewBox="0 0 96 96" fill="none" xmlns="http://www.w3.org/2000/svg">
<g filter="url(#filter0_dd_145_237)">
<rect x="16" y="8" width="64" height="64" rx="32" fill="white"/>
</g>
<path d="M47.951 61.6667C47.7593 61.6667 47.5754 61.5905 47.4399 61.4549C47.3043 61.3194 47.2281 61.1355 47.2281 60.9438V51.1614C47.2281 50.9697 47.3043 50.7859 47.4399 50.6503C47.5754 50.5148 47.7593 50.4386 47.951 50.4386C48.1427 50.4386 48.3265 50.5148 48.4621 50.6503C48.5977 50.7859 48.6738 50.9697 48.6738 51.1614V60.9245C48.6764 61.0211 48.6596 61.1172 48.6244 61.2071C48.5893 61.297 48.5364 61.379 48.469 61.4482C48.4017 61.5174 48.3211 61.5723 48.2321 61.6099C48.1431 61.6474 48.0476 61.6667 47.951 61.6667Z" fill="#DB3737"/>
<path d="M47.951 61.6667C47.7734 61.667 47.6018 61.6018 47.4691 61.4836L43.1321 57.6863C43.0609 57.623 43.0029 57.5463 42.9613 57.4606C42.9198 57.3749 42.8955 57.2819 42.8899 57.1868C42.8843 57.0917 42.8975 56.9964 42.9287 56.9064C42.96 56.8164 43.0086 56.7335 43.0719 56.6623C43.1352 56.5911 43.2119 56.5331 43.2976 56.4915C43.3833 56.4499 43.4763 56.4257 43.5714 56.4201C43.6665 56.4145 43.7618 56.4277 43.8518 56.4589C43.9418 56.4901 44.0247 56.5388 44.0959 56.602L48.4329 60.3993C48.5048 60.4611 48.5636 60.5366 48.6062 60.6212C48.6487 60.7059 48.6741 60.7982 48.6808 60.8927C48.6875 60.9872 48.6755 61.0821 48.6453 61.172C48.6152 61.2618 48.5676 61.3448 48.5052 61.4161C48.4362 61.4952 48.351 61.5584 48.2554 61.6017C48.1597 61.6449 48.056 61.6671 47.951 61.6667Z" fill="#DB3737"/>
<path d="M47.9511 61.6667C47.8034 61.6681 47.6588 61.6241 47.5369 61.5408C47.4149 61.4575 47.3214 61.3389 47.2689 61.2008C47.2164 61.0627 47.2074 60.9119 47.2433 60.7686C47.2791 60.6253 47.3579 60.4965 47.4692 60.3993L51.8062 56.602C51.8774 56.5388 51.9604 56.4901 52.0503 56.4589C52.1403 56.4277 52.2356 56.4145 52.3307 56.4201C52.4258 56.4257 52.5188 56.4499 52.6045 56.4915C52.6903 56.5331 52.7669 56.5911 52.8302 56.6623C52.8935 56.7335 52.9421 56.8164 52.9734 56.9064C53.0046 56.9964 53.0178 57.0917 53.0122 57.1868C53.0066 57.2819 52.9823 57.3749 52.9408 57.4606C52.8992 57.5463 52.8412 57.623 52.77 57.6863L48.433 61.4836C48.301 61.603 48.129 61.6684 47.9511 61.6667Z" fill="#DB3737"/>
<path d="M50.6159 47.5617H45.2814C43.351 47.5591 41.5005 46.7912 40.1355 45.4262C38.7705 44.0612 38.0026 42.2107 38 40.2803V26.3055C37.9981 25.3476 38.185 24.3987 38.5499 23.5131C38.9149 22.6275 39.4508 21.8224 40.127 21.144C40.8032 20.4656 41.6064 19.927 42.4909 19.5591C43.3753 19.1913 44.3235 19.0013 45.2814 19H50.6159C51.5732 18.9987 52.5213 19.1861 53.4061 19.5514C54.2909 19.9167 55.095 20.4528 55.7726 21.129C56.4501 21.8052 56.9878 22.6083 57.3548 23.4923C57.7219 24.3764 57.9111 25.3241 57.9118 26.2814V40.2803C57.9111 41.2376 57.7219 42.1853 57.3548 43.0694C56.9878 43.9534 56.4501 44.7565 55.7726 45.4327C55.095 46.1089 54.2909 46.645 53.4061 47.0103C52.5213 47.3756 51.5732 47.5629 50.6159 47.5617ZM45.2814 20.4457C43.7341 20.447 42.2505 21.0622 41.1563 22.1563C40.0622 23.2505 39.447 24.734 39.4457 26.2814V40.2803C39.4482 41.8273 40.0639 43.3101 41.1577 44.404C42.2516 45.4978 43.7344 46.1135 45.2814 46.116H50.6159C51.3833 46.1173 52.1434 45.9673 52.8528 45.6747C53.5622 45.382 54.207 44.9524 54.7503 44.4105C55.2936 43.8685 55.7248 43.2248 56.0192 42.5161C56.3136 41.8075 56.4654 41.0477 56.4661 40.2803V26.3055C56.4686 25.5361 56.3191 24.7737 56.0261 24.0623C55.7331 23.3508 55.3025 22.7042 54.7589 22.1597C54.2152 21.6152 53.5694 21.1835 52.8584 20.8893C52.1474 20.5952 51.3853 20.4444 50.6159 20.4457H45.2814Z" fill="#DB3737"/>
<path d="M47.951 31.0039C47.7593 31.0039 47.5754 30.9277 47.4399 30.7922C47.3043 30.6566 47.2281 30.4727 47.2281 30.281V26.6524C47.2281 26.4607 47.3043 26.2768 47.4399 26.1413C47.5754 26.0057 47.7593 25.9296 47.951 25.9296C48.1427 25.9296 48.3265 26.0057 48.4621 26.1413C48.5977 26.2768 48.6738 26.4607 48.6738 26.6524V30.281C48.6738 30.4727 48.5977 30.6566 48.4621 30.7922C48.3265 30.9277 48.1427 31.0039 47.951 31.0039Z" fill="#DB3737"/>
<defs>
<filter id="filter0_dd_145_237" x="0" y="0" width="96" height="96" filterUnits="userSpaceOnUse" color-interpolation-filters="sRGB">
<feFlood flood-opacity="0" result="BackgroundImageFix"/>
<feColorMatrix in="SourceAlpha" type="matrix" values="0 0 0 0 0 0 0 0 0 0 0 0 0 0 0 0 0 0 127 0" result="hardAlpha"/>
<feOffset dy="8"/>
<feGaussianBlur stdDeviation="8"/>
<feColorMatrix type="matrix" values="0 0 0 0 0 0 0 0 0 0 0 0 0 0 0 0 0 0 0.08 0"/>
<feBlend mode="normal" in2="BackgroundImageFix" result="effect1_dropShadow_145_237"/>
<feColorMatrix in="SourceAlpha" type="matrix" values="0 0 0 0 0 0 0 0 0 0 0 0 0 0 0 0 0 0 127 0" result="hardAlpha"/>
<feOffset/>
<feGaussianBlur stdDeviation="2"/>
<feColorMatrix type="matrix" values="0 0 0 0 0 0 0 0 0 0 0 0 0 0 0 0 0 0 0.04 0"/>
<feBlend mode="normal" in2="effect1_dropShadow_145_237" result="effect2_dropShadow_145_237"/>
<feBlend mode="normal" in="SourceGraphic" in2="effect2_dropShadow_145_237" result="shape"/>
</filter>
</defs>
</svg>
