<svg width="50" height="50" viewBox="0 0 50 50" fill="none" xmlns="http://www.w3.org/2000/svg">
<circle cx="25" cy="25" r="25" fill="#DB3737"/>
<mask id="mask0_93_2" style="mask-type:alpha" maskUnits="userSpaceOnUse" x="13" y="12" width="25" height="25">
<rect x="13.0492" y="12.7744" width="24" height="24" fill="#D9D9D9"/>
</mask>
<g mask="url(#mask0_93_2)">
<path d="M25.0492 24.7744C26.3992 24.7744 27.8075 24.6369 29.2742 24.3619C30.7409 24.0869 31.9992 23.7244 33.0492 23.2744V33.2744C32.0492 33.7244 30.8325 34.0869 29.3992 34.3619C27.9659 34.6369 26.5159 34.7744 25.0492 34.7744C23.5825 34.7744 22.1325 34.6369 20.6992 34.3619C19.2659 34.0869 18.0492 33.7244 17.0492 33.2744V23.2744C18.0992 23.7244 19.3575 24.0869 20.8242 24.3619C22.2909 24.6369 23.6992 24.7744 25.0492 24.7744ZM31.0492 31.7744V26.0244C30.2159 26.2577 29.2534 26.4411 28.1617 26.5744C27.07 26.7077 26.0325 26.7744 25.0492 26.7744C24.0659 26.7744 23.0284 26.7077 21.9367 26.5744C20.845 26.4411 19.8825 26.2577 19.0492 26.0244V31.7744C19.8825 32.0744 20.8409 32.3161 21.9242 32.4994C23.0075 32.6827 24.0492 32.7744 25.0492 32.7744C26.0492 32.7744 27.0909 32.6827 28.1742 32.4994C29.2575 32.3161 30.2159 32.0744 31.0492 31.7744ZM25.0492 14.7744C26.1492 14.7744 27.0909 15.1661 27.8742 15.9494C28.6575 16.7327 29.0492 17.6744 29.0492 18.7744C29.0492 19.8744 28.6575 20.8161 27.8742 21.5994C27.0909 22.3827 26.1492 22.7744 25.0492 22.7744C23.9492 22.7744 23.0075 22.3827 22.2242 21.5994C21.4409 20.8161 21.0492 19.8744 21.0492 18.7744C21.0492 17.6744 21.4409 16.7327 22.2242 15.9494C23.0075 15.1661 23.9492 14.7744 25.0492 14.7744ZM25.0492 20.7744C25.5992 20.7744 26.07 20.5786 26.4617 20.1869C26.8534 19.7952 27.0492 19.3244 27.0492 18.7744C27.0492 18.2244 26.8534 17.7536 26.4617 17.3619C26.07 16.9702 25.5992 16.7744 25.0492 16.7744C24.4992 16.7744 24.0284 16.9702 23.6367 17.3619C23.245 17.7536 23.0492 18.2244 23.0492 18.7744C23.0492 19.3244 23.245 19.7952 23.6367 20.1869C24.0284 20.5786 24.4992 20.7744 25.0492 20.7744Z" fill="white"/>
</g>
</svg>
