<svg width="14" height="14" viewBox="0 0 14 14" fill="none" xmlns="http://www.w3.org/2000/svg">
<path d="M6.43164 2.01553V2.32016C6.8544 2.29153 7.08073 2.32582 7.10423 2.32967C7.24031 2.35188 7.35652 2.43979 7.41505 2.56454L8.00914 3.83069C8.08102 3.84746 8.14949 3.88292 8.2061 3.93814C8.27777 4.00799 8.36354 4.06268 8.46074 4.08639C8.65481 4.13371 8.8474 4.07977 8.98347 3.94743C9.12393 3.81093 9.33819 3.77621 9.50375 3.88089C9.74045 4.03042 9.76587 4.34723 9.58023 4.53287C9.31833 4.79487 8.97001 4.93918 8.59949 4.93918C8.57567 4.93918 8.55195 4.93854 8.52824 4.93736L9.32687 6.63961C9.36062 6.71139 9.39256 6.7837 9.4229 6.85634C10.3221 6.57275 11.345 6.78338 12.0596 7.48994C12.2194 7.64781 12.2372 7.90565 12.0878 8.07356C12.0044 8.16734 11.8897 8.21423 11.775 8.21423C11.6681 8.21423 11.561 8.17343 11.4796 8.09182C10.9952 7.60754 10.2997 7.46025 9.68661 7.6492C9.91914 8.57632 9.90365 9.53314 9.66365 10.4304C9.77665 10.4677 9.89169 10.5011 10.0085 10.5301C10.1442 10.5638 10.2859 10.5641 10.4217 10.5305C12.5117 10.0136 14 8.13401 14 5.95645V2.01553C14 1.82039 13.8795 1.64543 13.6968 1.57675C13.1212 1.36046 12.0088 1.06641 10.216 1.06641C8.42303 1.06641 7.31049 1.36056 6.73477 1.57686C6.55212 1.64543 6.43164 1.82039 6.43164 2.01553ZM11.052 3.94188C11.2152 3.77867 11.4798 3.77867 11.6431 3.94188C11.7471 4.04591 11.8854 4.10327 12.0326 4.10327C12.1798 4.10327 12.3182 4.04591 12.4223 3.94188C12.5855 3.77856 12.8502 3.77856 13.0134 3.94188C13.1766 4.10509 13.1766 4.36966 13.0134 4.53287C12.7514 4.79487 12.4031 4.93918 12.0326 4.93918C11.6622 4.93918 11.3139 4.79487 11.0519 4.53287C10.8888 4.36966 10.8888 4.10509 11.052 3.94188Z" fill="#DB3737"/>
<path d="M8.57021 6.99467L6.88739 3.40795C6.80995 3.24282 6.63841 3.14337 6.45651 3.15715C5.84886 3.20308 4.70908 3.40463 3.06739 4.17485C1.44417 4.93642 0.56191 5.67523 0.132635 6.11551C-0.00354988 6.25522 -0.0383704 6.46478 0.0445153 6.64145L1.71836 10.2093C2.64324 12.1806 4.78919 13.2501 6.90096 12.8303C7.03746 12.8032 7.16521 12.7433 7.2733 12.6556C8.94597 11.2999 9.49509 8.96609 8.57021 6.99467ZM5.18834 6.72733C5.44821 6.00806 6.24481 5.63422 6.96408 5.8942C7.18112 5.9726 7.29349 6.21217 7.21509 6.42932C7.13669 6.64636 6.89711 6.75883 6.67996 6.68033C6.39424 6.57715 6.07776 6.72562 5.97447 7.01134C5.91295 7.18159 5.75252 7.28744 5.58141 7.28744C5.5342 7.28744 5.48624 7.27943 5.43935 7.26245C5.22231 7.18394 5.10983 6.94437 5.18834 6.72733ZM3.57196 8.13852C3.43354 8.08853 3.28389 8.09537 3.15059 8.15796C3.0174 8.22044 2.91646 8.3311 2.86647 8.46953C2.80495 8.63978 2.64441 8.74563 2.4733 8.74563C2.4262 8.74563 2.37824 8.73752 2.33135 8.72064C2.1142 8.64224 2.00184 8.40266 2.08023 8.18552C2.20617 7.8371 2.46016 7.55853 2.79555 7.4012C3.13105 7.24387 3.50756 7.22646 3.85598 7.35239C4.07312 7.43079 4.18549 7.67036 4.10709 7.88751C4.02858 8.10455 3.789 8.21692 3.57196 8.13852ZM4.97536 10.8705C4.68003 10.8705 4.37999 10.8203 4.08658 10.7143C3.86943 10.6359 3.75707 10.3963 3.83547 10.1792C3.91397 9.96211 4.15345 9.84964 4.37059 9.92814C5.2974 10.263 6.32385 9.78138 6.65871 8.85469C6.73711 8.63754 6.97669 8.52518 7.19383 8.60358C7.41087 8.68208 7.52324 8.92166 7.44484 9.13881C7.05936 10.2055 6.04935 10.8705 4.97536 10.8705Z" fill="#DB3737"/>
</svg>
