<svg width="18" height="20" viewBox="0 0 18 20" fill="none" xmlns="http://www.w3.org/2000/svg">
<g id="User">
<g id="Group">
<path id="Vector" d="M1.70862 18.3333V17.2917C1.70862 16.3341 1.89722 15.3859 2.26366 14.5013C2.6301 13.6166 3.1672 12.8128 3.8443 12.1357C4.52139 11.4586 5.32522 10.9215 6.20988 10.555C7.09455 10.1886 8.04273 10 9.00028 10C9.95784 10 10.906 10.1886 11.7907 10.555C12.6754 10.9215 13.4792 11.4586 14.1563 12.1357C14.8334 12.8128 15.3705 13.6166 15.7369 14.5013C16.1033 15.3859 16.292 16.3341 16.292 17.2917V18.3333" stroke="#4200FF" stroke-width="2" stroke-linecap="round" stroke-linejoin="round"/>
<path id="Vector_2" d="M9.00016 10C10.1052 10 11.165 9.56103 11.9464 8.77963C12.7278 7.99823 13.1668 6.93842 13.1668 5.83335C13.1668 4.72828 12.7278 3.66848 11.9464 2.88708C11.165 2.10567 10.1052 1.66669 9.00016 1.66669C7.89509 1.66669 6.83529 2.10567 6.05388 2.88708C5.27248 3.66848 4.8335 4.72828 4.8335 5.83335C4.8335 6.93842 5.27248 7.99823 6.05388 8.77963C6.83529 9.56103 7.89509 10 9.00016 10V10Z" stroke="#4200FF" stroke-width="2" stroke-linecap="round" stroke-linejoin="round"/>
</g>
</g>
</svg>
